<svg xmlns="http://www.w3.org/2000/svg" width="142" height="33" fill="#fff" xmlns:v="https://vecta.io/nano"><path d="M0 6.737v25.87h3.758V13.875H4l7.72 18.696h3.12l7.72-18.683h.243v18.72h3.758V6.737h-4.79l-8.335 20.1h-.307l-8.334-20.1H0zM41.13 33c4.282 0 7.312-2.084 8.182-5.242l-3.618-.644c-.7 1.832-2.352 2.767-4.525 2.767-3.273 0-5.47-2.097-5.574-5.836h13.96v-1.34c0-7-4.244-9.752-8.693-9.752-5.47 0-9.076 4.118-9.076 10.08C31.786 29.06 35.34 33 41.13 33zM35.6 21.214c.153-2.754 2.173-5.14 5.28-5.14 2.966 0 4.9 2.173 4.922 5.14h-10.2zm32.9-3.272c-.793-3.02-3.183-5-7.427-5-4.436 0-7.58 2.312-7.58 5.748 0 2.754 1.687 4.586 5.37 5.394l3.324.72c1.892.417 2.774 1.25 2.774 2.463 0 1.503-1.623 2.678-4.13 2.678-2.288 0-3.758-.973-4.22-2.88l-3.694.556c.64 3.436 3.528 5.37 7.94 5.37 4.743 0 8.028-2.5 8.028-6 0-2.74-1.764-4.434-5.37-5.255l-3.12-.707c-2.16-.505-3.094-1.225-3.08-2.54-.013-1.5 1.624-2.552 3.797-2.552 2.378 0 3.477 1.3 3.925 2.602l3.464-.606zm13.753-4.737h-4.027v-4.65h-3.822v4.65h-2.876v3.032h2.876v11.458c-.013 3.524 2.7 5.23 5.727 5.167 1.214-.013 2.033-.24 2.48-.404l-.7-3.12c-.256.05-.73.164-1.342.164-1.24 0-2.352-.404-2.352-2.6V16.237h4.027v-3.032zM94.55 33c5.535 0 9.153-4.004 9.153-10.005 0-6.038-3.618-10.043-9.153-10.043s-9.153 4.005-9.153 10.043c0 6 3.618 10.005 9.153 10.005zm.013-3.17c-3.618 0-5.305-3.12-5.305-6.847 0-3.714 1.687-6.872 5.305-6.872 3.592 0 5.28 3.158 5.28 6.872 0 3.727-1.687 6.847-5.28 6.847zm12.613-20.937h1.057v-3.37h1.9l.222-.004 1.84 3.373h1.227L111.46 5.33c1.112-.375 1.632-1.272 1.632-2.417 0-1.524-.92-2.644-2.966-2.644h-2.95v8.624zm1.057-4.312V1.196h1.858c1.415 0 1.96.682 1.96 1.718s-.545 1.667-1.943 1.667h-1.875zm10.607 1.67c0 1.213-.937 1.77-1.687 1.77-.835 0-1.432-.606-1.432-1.55V2.425h-1.005v4.1c0 1.65.886 2.442 2.113 2.442 1 0 1.636-.522 1.943-1.18h.068v1.095h1.006V2.425h-1.006V6.25zm7.484-2.376c-.315-.918-1.023-1.533-2.318-1.533-1.38 0-2.403.775-2.403 1.87 0 .893.537 1.5 1.738 1.77l1.1.253c.66.152.972.463.972.9 0 .556-.597 1-1.534 1-.823 0-1.338-.35-1.517-1.044l-.955.236c.235 1.1 1.15 1.684 2.5 1.684 1.52 0 2.556-.82 2.556-1.937 0-.9-.57-1.47-1.738-1.752l-.972-.236c-.775-.2-1.125-.446-1.125-.943 0-.556.597-.96 1.398-.96.878 0 1.24.48 1.415.926l.903-.253zm6.27 0c-.315-.918-1.022-1.533-2.318-1.533-1.38 0-2.403.775-2.403 1.87 0 .893.537 1.5 1.74 1.77l1.1.253c.66.152.972.463.972.9 0 .556-.597 1-1.534 1-.822 0-1.338-.35-1.517-1.044l-.955.236c.235 1.1 1.15 1.684 2.5 1.684 1.52 0 2.557-.82 2.557-1.937 0-.9-.57-1.47-1.74-1.752l-.97-.236c-.776-.2-1.125-.446-1.125-.943 0-.556.596-.96 1.397-.96.878 0 1.24.48 1.415.926l.903-.253zm1.634 5.02h1.005V2.425h-1.005v6.468zm.5-7.546c.392 0 .716-.303.716-.674S135.13 0 134.738 0s-.716.303-.716.674.324.674.716.674zM139 9.045c1.142 0 1.74-.606 1.943-1.027h.05v.876H142v-4.26c0-2.055-1.585-2.3-2.42-2.3-1 0-2.114.337-2.625 1.516l.954.337c.222-.472.746-.977 1.705-.977.924 0 1.38.484 1.38 1.314v.034c0 .48-.494.438-1.687.6-1.215.156-2.54.42-2.54 1.903 0 1.263 1 1.988 2.233 1.988zm.154-.893c-.802 0-1.38-.354-1.38-1.044 0-.758.7-.994 1.483-1.095.426-.05 1.568-.168 1.738-.37v.9c0 .808-.647 1.6-1.84 1.6z"/></svg>